<?xml version="1.0" encoding="UTF-8" standalone="no"?>
<!DOCTYPE svg PUBLIC "-//W3C//DTD SVG 1.0//EN"
 "http://www.w3.org/TR/2001/REC-SVG-20010904/DTD/svg10.dtd" [
 <!ATTLIST svg xmlns:xlink CDATA #FIXED "http://www.w3.org/1999/xlink">
]>
<!-- Generated by Graphviz version 2.20.3 (Sun Jul 26 05:00:36 UTC 2009)
     For user: (bozz) bozz -->
<!-- Title: G Pages: 1 -->
<svg width="100pt" height="106pt"
 viewBox="0.00 0.00 100.00 106.00" xmlns="http://www.w3.org/2000/svg" xmlns:xlink="http://www.w3.org/1999/xlink">
<g id="graph0" class="graph" transform="scale(1 1) rotate(0) translate(4 102)">
<title>G</title>
<polygon style="fill:white;stroke:white;" points="-4,4 -4,-102 96,-102 96,4 -4,4"/>
<g id="cluster2" class="cluster"><title>cluster_Global</title>
<polyline style="fill:none;stroke:gray;" points="20,-16 72,-16 "/>
<path style="fill:none;stroke:gray;" d="M72,-16C78,-16 84,-22 84,-28"/>
<polyline style="fill:none;stroke:gray;" points="84,-28 84,-78 "/>
<path style="fill:none;stroke:gray;" d="M84,-78C84,-84 78,-90 72,-90"/>
<polyline style="fill:none;stroke:gray;" points="72,-90 20,-90 "/>
<path style="fill:none;stroke:gray;" d="M20,-90C14,-90 8,-84 8,-78"/>
<polyline style="fill:none;stroke:gray;" points="8,-78 8,-28 "/>
<path style="fill:none;stroke:gray;" d="M8,-28C8,-22 14,-16 20,-16"/>
<text text-anchor="middle" x="46" y="-76.1" style="font-family:Times New Roman;font-size:11.00;fill:gray;">\</text>
</g>
<!-- \\DmsAPI -->
<g id="node2" class="node"><title>\\DmsAPI</title>
<polygon style="fill:none;stroke:black;" points="76,-60 16,-60 16,-24 76,-24 76,-60"/>
<text text-anchor="middle" x="46" y="-39.1" style="font-family:Times New Roman;font-size:11.00;">DmsAPI</text>
</g>
</g>
</svg>
